<svg width="325" height="59" viewBox="0 0 325 59" fill="none" xmlns="http://www.w3.org/2000/svg">
<path d="M312.6 19.7498C311.372 14.982 308.83 10.6545 305.265 7.25919C301.699 3.86383 297.253 1.53673 292.43 0.542349C287.608 -0.452034 282.604 -0.0738209 277.986 1.63401C273.368 3.34184 269.322 6.31079 266.307 10.2034C263.292 14.0962 261.43 18.7564 260.931 23.6548C260.433 28.5531 261.318 33.493 263.488 37.913C265.657 42.3331 269.022 46.0562 273.201 48.659C277.38 51.2619 282.206 52.6403 287.13 52.6374H307.95C311.992 52.6379 315.898 51.179 318.95 48.5291C322.001 45.8792 323.993 42.2165 324.56 38.2147C325.126 34.213 324.228 30.1414 322.032 26.7487C319.835 23.3561 316.488 20.8707 312.604 19.7498H312.6ZM307.946 47.8927H287.126C282.963 47.8942 278.888 46.6912 275.393 44.4288C271.897 42.1664 269.132 38.9412 267.428 35.1421C265.725 31.343 265.157 27.1322 265.793 23.0176C266.429 18.903 268.241 15.0603 271.012 11.9527C273.784 8.84525 277.394 6.60569 281.409 5.50415C285.424 4.40262 289.672 4.48614 293.641 5.74466C297.61 7.00317 301.13 9.38294 303.777 12.5969C306.423 15.811 308.083 19.7221 308.557 23.8585H308.541C311.677 24.0117 314.628 25.3849 316.764 27.6849C318.901 29.9849 320.054 33.0292 319.975 36.1674C319.897 39.3057 318.595 42.2889 316.347 44.4798C314.099 46.6708 311.083 47.8956 307.944 47.8927H307.946Z" fill="#EB3745"/>
<path d="M307.946 28.7864H303.769V26.3147C303.77 23.0227 302.795 19.8043 300.967 17.0666C299.139 14.3289 296.54 12.1948 293.498 10.9343C290.457 9.67384 287.111 9.34356 283.882 9.98529C280.653 10.6269 277.687 12.2117 275.359 14.5392C273.031 16.8668 271.446 19.8325 270.803 23.0612C270.16 26.2899 270.49 29.6365 271.749 32.6779C273.01 35.7193 275.143 38.3188 277.88 40.1476C280.618 41.9764 283.836 42.9523 287.128 42.9519H307.948C309.827 42.9519 311.628 42.2057 312.957 40.8774C314.285 39.5491 315.031 37.7476 315.031 35.8692C315.031 33.9907 314.285 32.1892 312.957 30.8609C311.628 29.5326 309.827 28.7864 307.948 28.7864" fill="#EB3745"/>
<path d="M5.19746 58.5H0.80894C0.594638 58.4998 0.389173 58.4147 0.237548 58.2632C0.0859252 58.1117 0.00050528 57.9064 0 57.6921V15.3063C0 15.0936 0.0845229 14.8895 0.234975 14.7391C0.385427 14.5886 0.589483 14.504 0.802254 14.504H5.25859C5.3646 14.5039 5.4696 14.5248 5.56757 14.5653C5.66554 14.6058 5.75456 14.6652 5.82952 14.7401C5.90449 14.8151 5.96393 14.9041 6.00444 15.0021C6.04495 15.1001 6.06574 15.2051 6.06562 15.3111V18.5888C7.48765 17.0569 9.21211 15.8368 11.1299 15.0056C13.0478 14.1744 15.1172 13.7503 17.2074 13.76C27.2967 13.76 34.6631 21.3098 34.6631 31.2712C34.6957 35.8074 32.9642 40.1788 29.8343 43.4625C28.2856 45.1553 26.3874 46.4912 24.2713 47.3779C22.1553 48.2646 19.8717 48.6809 17.5789 48.5979C15.416 48.6317 13.2697 48.2145 11.2769 47.373C9.28413 46.5314 7.48851 45.2839 6.00449 43.7099V57.6892C6.00449 57.9033 5.9195 58.1087 5.76818 58.2602C5.61686 58.4117 5.41159 58.497 5.19746 58.4972V58.5ZM17.0231 42.7825C18.5229 42.7799 20.0075 42.4814 21.3918 41.9044C22.7762 41.3273 24.0332 40.4829 25.0909 39.4197C26.1486 38.3563 26.9863 37.0948 27.5561 35.7075C28.1258 34.3201 28.4164 32.834 28.4113 31.3342C28.4639 29.7961 28.2068 28.263 27.6553 26.8261C27.104 25.3892 26.2693 24.0778 25.2012 22.9697C24.1331 21.8617 22.8531 20.9796 21.4374 20.3758C20.0217 19.7721 18.4991 19.459 16.96 19.4551C11.1418 19.4551 5.81825 24.7137 5.81825 30.9034C5.81825 37.6481 11.0797 42.7844 17.0221 42.7835L17.0231 42.7825ZM65.0628 43.771C63.6407 45.3028 61.9162 46.5228 59.9984 47.3538C58.0805 48.1848 56.0111 48.6088 53.921 48.5989C43.8317 48.5989 36.5274 41.0539 36.5274 31.0887C36.4726 26.5601 38.1821 22.1878 41.2941 18.8973C42.8428 17.2042 44.741 15.8679 46.8573 14.9812C48.9736 14.0944 51.2574 13.6784 53.5505 13.762C55.7053 13.7229 57.8442 14.1382 59.8279 14.9806C61.8117 15.8232 63.5956 17.0741 65.0638 18.6519V15.4343C65.0645 15.2206 65.15 15.016 65.3015 14.8651C65.453 14.7144 65.658 14.6299 65.8718 14.6301H70.3224C70.5359 14.6301 70.7408 14.7148 70.892 14.8655C71.0432 15.0162 71.1286 15.2207 71.1294 15.4343V47.0469C71.1295 47.1529 71.1088 47.258 71.0682 47.356C71.0277 47.4539 70.9683 47.5429 70.8933 47.6178C70.8183 47.6928 70.7293 47.7523 70.6313 47.7928C70.5333 47.8333 70.4284 47.8541 70.3224 47.8539H65.8718C65.7656 47.8541 65.6605 47.8333 65.5624 47.7927C65.4643 47.7521 65.3752 47.6926 65.3001 47.6176C65.2251 47.5426 65.1656 47.4534 65.125 47.3553C65.0845 47.2572 65.0637 47.1522 65.0638 47.0459L65.0628 43.771ZM54.2314 42.9115C60.0497 42.9115 65.3732 37.6529 65.3732 31.4631C65.3732 24.7175 60.0487 19.584 54.1035 19.584C52.6025 19.5809 51.1157 19.875 49.7291 20.4495C48.3424 21.0241 47.0832 21.8676 46.0244 22.9313C44.9655 23.9952 44.1278 25.2582 43.5596 26.6474C42.9916 28.0367 42.7042 29.5248 42.7143 31.0257C42.6686 32.5674 42.9324 34.1025 43.4902 35.5405C44.0481 36.9784 44.8884 38.2899 45.9618 39.3975C47.0351 40.505 48.3197 41.3861 49.7394 41.9887C51.1592 42.5913 52.6853 42.9032 54.2276 42.9057L54.2314 42.9115ZM78.2475 58.5H73.8542C73.6401 58.4998 73.4348 58.4146 73.2834 58.2631C73.1322 58.1116 73.0472 57.9062 73.0472 57.6921V15.3101C73.0472 15.0961 73.1322 14.8908 73.2835 14.7395C73.4349 14.5882 73.6402 14.5031 73.8542 14.5031H78.3048C78.5188 14.5031 78.7241 14.5882 78.8754 14.7395C79.0268 14.8908 79.1118 15.0961 79.1118 15.3101V18.5879C80.5341 17.0564 82.2587 15.8367 84.1764 15.0059C86.0943 14.175 88.1635 13.7512 90.2536 13.761C100.344 13.761 107.709 21.306 107.709 31.2721C107.742 35.8081 106.011 40.1795 102.882 43.4635C101.334 45.1562 99.4366 46.4921 97.3201 47.3786C95.2047 48.2652 92.9215 48.6812 90.6289 48.5979C88.4663 48.6315 86.3203 48.2143 84.3277 47.373C82.3351 46.5316 80.5395 45.2843 79.0555 43.7109V57.6911C79.0556 57.7972 79.0348 57.9024 78.9943 58.0004C78.9538 58.0985 78.8944 58.1876 78.8195 58.2627C78.7446 58.3379 78.6556 58.3975 78.5576 58.4382C78.4596 58.4789 78.3536 58.4999 78.2475 58.5ZM90.0721 42.7825C91.572 42.7799 93.0566 42.4814 94.441 41.9044C95.8255 41.3273 97.0823 40.483 98.1405 39.4197C99.1978 38.3564 100.036 37.0949 100.606 35.7076C101.176 34.3202 101.466 32.8341 101.461 31.3342C101.461 24.4042 96.2638 19.4551 90.011 19.4551C84.1918 19.4551 78.8683 24.7137 78.8683 30.9034C78.8683 37.6481 84.1307 42.7835 90.0721 42.7825ZM126.783 42.9067C128.602 42.9362 130.398 42.485 131.988 41.5987C133.577 40.7125 134.905 39.4226 135.837 37.8592C135.909 37.739 136.01 37.6392 136.131 37.5695C136.252 37.4998 136.39 37.4624 136.529 37.4609H141.566C141.703 37.4609 141.838 37.4956 141.957 37.5617C142.077 37.6277 142.179 37.7231 142.251 37.8387C142.324 37.9545 142.367 38.0868 142.374 38.2234C142.382 38.3598 142.355 38.4961 142.296 38.6194C139.11 45.2982 133.64 48.8482 126.784 48.8482C124.489 48.9002 122.209 48.4635 120.096 47.5671C117.983 46.6707 116.084 45.335 114.527 43.6488C111.374 40.3205 109.604 35.9185 109.576 31.3342C109.509 26.8336 111.195 22.4835 114.279 19.2049C115.829 17.4601 117.738 16.0704 119.875 15.1309C122.011 14.1914 124.326 13.7241 126.66 13.761C129.511 13.7419 132.32 14.4404 134.829 15.7923C137.339 17.1443 139.469 19.1061 141.021 21.497C143.003 24.5303 143.869 28.0583 143.869 32.6359V32.7563C143.869 32.9704 143.783 33.1757 143.632 33.327C143.48 33.4783 143.275 33.5633 143.061 33.5633H115.89C116.269 36.1744 117.58 38.5599 119.582 40.2785C121.584 41.9969 124.14 42.932 126.778 42.9105L126.783 42.9067ZM126.845 19.5793C121.645 19.5793 117.498 22.8561 116.075 28.1796H137.306C135.821 22.7357 131.984 19.5793 126.845 19.5793ZM146.101 47.4261V15.8134C146.101 15.5993 146.187 15.3941 146.338 15.2428C146.49 15.0914 146.695 15.0064 146.909 15.0064H150.92C151.134 15.0064 151.34 15.0915 151.49 15.2428C151.642 15.3942 151.727 15.5994 151.727 15.8134V18.8429C153.532 16.1382 157.458 14.7667 160.412 14.4974C160.524 14.4871 160.637 14.5005 160.744 14.5365C160.851 14.5725 160.949 14.6304 161.033 14.7065C161.117 14.7826 161.183 14.8753 161.228 14.9785C161.274 15.0818 161.298 15.1934 161.298 15.3063V19.968C161.299 20.1638 161.228 20.3532 161.098 20.5004C160.969 20.6475 160.791 20.7421 160.596 20.7664C155.513 21.3767 152.096 24.1674 152.096 29.7325V47.4261C152.096 47.5323 152.075 47.6373 152.035 47.7354C151.994 47.8335 151.935 47.9227 151.86 47.9977C151.785 48.0727 151.696 48.1322 151.597 48.1728C151.499 48.2134 151.394 48.2342 151.288 48.234H146.908C146.694 48.2339 146.489 48.1486 146.337 47.9971C146.186 47.8456 146.101 47.6402 146.101 47.4261ZM168.747 20.7158H163.142C163.036 20.7161 162.93 20.6953 162.833 20.6547C162.734 20.6142 162.645 20.5546 162.569 20.4794C162.495 20.4042 162.435 20.315 162.394 20.2168C162.353 20.1185 162.333 20.0131 162.333 19.9068V16.0789C162.333 15.9726 162.353 15.8674 162.394 15.7691C162.435 15.6708 162.495 15.5815 162.569 15.5064C162.645 15.4312 162.734 15.3716 162.833 15.3311C162.93 15.2905 163.036 15.2698 163.142 15.27H168.747V6.45193C168.747 6.23796 168.832 6.03283 168.984 5.88154C169.135 5.73025 169.341 5.64514 169.555 5.6449H173.883C174.097 5.6449 174.302 5.72992 174.453 5.88126C174.605 6.03261 174.69 6.23789 174.69 6.45193V15.27H180.296C180.402 15.2702 180.507 15.2912 180.606 15.332C180.704 15.3728 180.793 15.4325 180.868 15.5076C180.943 15.5829 181.002 15.6721 181.043 15.7703C181.083 15.8684 181.104 15.9737 181.104 16.0799V19.9078C181.104 20.1222 181.019 20.3278 180.867 20.4795C180.716 20.6312 180.51 20.7165 180.296 20.7167H174.69V47.6906C174.69 47.9047 174.605 48.1101 174.453 48.2617C174.302 48.4133 174.097 48.4988 173.883 48.4996H169.557C169.343 48.4991 169.138 48.4137 168.986 48.262C168.834 48.1105 168.749 47.9049 168.749 47.6906V20.7177L168.747 20.7158ZM182.626 47.4261V15.8134C182.626 15.5994 182.711 15.3942 182.862 15.2428C183.014 15.0915 183.22 15.0064 183.434 15.0064H187.451C187.664 15.0064 187.87 15.0915 188.022 15.2428C188.173 15.3942 188.258 15.5994 188.258 15.8134V18.8439C190.065 16.1324 194.001 14.7609 196.958 14.4954C197.07 14.4863 197.182 14.5005 197.287 14.5371C197.393 14.5737 197.489 14.6319 197.571 14.708C197.653 14.7842 197.718 14.8765 197.762 14.9792C197.806 15.0819 197.828 15.1926 197.827 15.3044V19.9689C197.828 20.1632 197.759 20.3512 197.632 20.4977C197.504 20.6442 197.328 20.7392 197.135 20.7645C192.046 21.3719 188.629 24.1607 188.629 29.7335V47.4251C188.629 47.5311 188.608 47.6362 188.568 47.7342C188.528 47.8321 188.468 47.9211 188.393 47.996C188.318 48.071 188.229 48.1305 188.131 48.171C188.033 48.2115 187.928 48.2323 187.822 48.2321H183.434C183.328 48.2327 183.222 48.2122 183.124 48.1718C183.026 48.1314 182.937 48.072 182.861 47.9969C182.787 47.9219 182.728 47.8327 182.687 47.7346C182.647 47.6365 182.626 47.5323 182.626 47.4261ZM225.366 43.7701C223.944 45.3025 222.219 46.5229 220.3 47.3541C218.381 48.1852 216.312 48.6092 214.221 48.5989C204.132 48.5989 196.827 41.0539 196.827 31.0887C196.773 26.5601 198.482 22.1878 201.594 18.8973C203.142 17.2042 205.041 15.868 207.157 14.9813C209.274 14.0945 211.557 13.6785 213.85 13.762C216.005 13.7229 218.143 14.1381 220.127 14.9806C222.111 15.8232 223.894 17.0741 225.362 18.6519V15.4343C225.363 15.2204 225.448 15.0156 225.6 14.8649C225.751 14.7141 225.957 14.6296 226.171 14.6301H230.621C230.835 14.6299 231.041 14.7143 231.192 14.8651C231.343 15.0159 231.429 15.2205 231.43 15.4343V47.0469C231.43 47.1531 231.409 47.2582 231.368 47.3562C231.328 47.4542 231.268 47.5433 231.193 47.6183C231.118 47.6932 231.029 47.7526 230.931 47.7931C230.832 47.8335 230.727 47.8542 230.621 47.8539H226.171C226.065 47.8542 225.96 47.8335 225.861 47.793C225.763 47.7525 225.674 47.6929 225.599 47.6178C225.524 47.5428 225.464 47.4537 225.424 47.3555C225.383 47.2573 225.363 47.1522 225.363 47.0459V43.7701H225.366ZM214.534 42.9105C220.353 42.9105 225.676 37.6519 225.676 31.4622C225.676 24.7165 220.353 19.5831 214.406 19.5831C212.905 19.5803 211.419 19.8748 210.032 20.4498C208.645 21.0247 207.387 21.8686 206.327 22.9328C205.269 23.9969 204.432 25.2603 203.864 26.6498C203.296 28.0393 203.009 29.5276 203.02 31.0286C202.974 32.57 203.239 34.1049 203.796 35.5426C204.354 36.9801 205.195 38.2914 206.267 39.3987C207.341 40.506 208.625 41.3868 210.044 41.9893C211.465 42.5916 212.99 42.9033 214.532 42.9057L214.534 42.9105ZM235.385 10.0649V5.51787C235.4 5.31918 235.493 5.13436 235.643 5.00336C235.793 4.87235 235.989 4.8057 236.187 4.81781H240.514C240.713 4.80588 240.908 4.87221 241.059 5.00265C241.21 5.1331 241.304 5.3173 241.321 5.51596V10.0592C241.306 10.2586 241.212 10.444 241.061 10.5749C240.91 10.7058 240.714 10.7717 240.514 10.7583H236.187C235.988 10.7702 235.792 10.7036 235.641 10.5728C235.49 10.442 235.397 10.2572 235.38 10.0582L235.385 10.0649ZM236.192 14.4506H240.519C240.733 14.4506 240.938 14.5356 241.09 14.6869C241.241 14.8383 241.326 15.0436 241.326 15.2576V46.8702C241.326 47.0842 241.241 47.2893 241.089 47.4406C240.938 47.592 240.733 47.6771 240.519 47.6772H236.187C235.974 47.6771 235.768 47.5918 235.616 47.4403C235.465 47.2888 235.38 47.0834 235.38 46.8693V15.2566C235.38 15.1505 235.4 15.0453 235.441 14.9471C235.482 14.8489 235.541 14.7596 235.615 14.6844C235.691 14.6093 235.78 14.5497 235.878 14.5091C235.976 14.4684 236.081 14.4476 236.187 14.4477L236.192 14.4506ZM246.338 4.81781H250.663C250.877 4.81781 251.083 4.9028 251.235 5.05412C251.385 5.20544 251.471 5.41071 251.471 5.62484V46.8693C251.47 47.0834 251.385 47.2884 251.235 47.4397C251.083 47.591 250.877 47.6761 250.663 47.6763H246.338C246.232 47.6765 246.127 47.6557 246.028 47.6152C245.931 47.5747 245.841 47.5153 245.767 47.4403C245.691 47.3653 245.632 47.2763 245.591 47.1783C245.551 47.0803 245.53 46.9754 245.53 46.8693V5.62675C245.53 5.52061 245.55 5.41548 245.591 5.31739C245.631 5.2193 245.691 5.13019 245.766 5.05519C245.841 4.98019 245.93 4.92078 246.028 4.88036C246.127 4.83995 246.232 4.81934 246.338 4.81972" fill="white"/>
</svg>
