<svg width="263" height="319" viewBox="0 0 263 319" fill="none" xmlns="http://www.w3.org/2000/svg">
<path d="M30.655 46.41L131.5 24L232.345 46.41C235.07 47.0158 237.508 48.5328 239.255 50.7104C241.002 52.8881 241.954 55.5963 241.954 58.3882V180.956C241.954 193.078 238.96 205.013 233.239 215.7C227.519 226.388 219.248 235.498 209.162 242.221L131.5 294L53.8381 242.221C43.7533 235.499 35.4838 226.391 29.7633 215.706C24.0428 205.02 21.0483 193.088 21.0454 180.968V58.3882C21.0459 55.5963 21.9982 52.8881 23.7453 50.7104C25.4923 48.5328 27.9296 47.0158 30.655 46.41ZM131.5 146.727C139.637 146.727 147.441 143.495 153.195 137.741C158.949 131.987 162.182 124.183 162.182 116.045C162.182 107.908 158.949 100.104 153.195 94.3501C147.441 88.5962 139.637 85.3636 131.5 85.3636C123.363 85.3636 115.559 88.5962 109.805 94.3501C104.051 100.104 100.818 107.908 100.818 116.045C100.818 124.183 104.051 131.987 109.805 137.741C115.559 143.495 123.363 146.727 131.5 146.727ZM76.604 208.091H186.396C184.908 194.571 178.484 182.076 168.354 173C158.224 163.923 145.101 158.904 131.5 158.904C117.899 158.904 104.776 163.923 94.6459 173C84.5161 182.076 78.0918 194.571 76.604 208.091Z" fill="#EB3745"/>
<rect x="60.3184" y="65.7266" width="141.136" height="153.409" fill="#EB3745"/>
<path d="M19.2207 30.3412L19.2204 30.3412C15.2132 31.232 11.6294 33.4625 9.06063 36.6644C6.49183 39.8664 5.09152 43.8485 5.09082 47.9536V47.9544V183.246V183.247C5.0942 197.365 8.58228 211.264 15.2456 223.71C21.9088 236.156 31.5412 246.765 43.288 254.596C43.2881 254.596 43.2882 254.596 43.2883 254.596L129.004 311.744L131.5 313.408L133.996 311.744L219.712 254.596C219.712 254.596 219.712 254.596 219.712 254.596C231.461 246.764 241.094 236.153 247.758 223.704C254.421 211.255 257.908 197.353 257.909 183.233V183.233V47.9544V47.9536C257.908 43.8485 256.508 39.8664 253.939 36.6644C251.37 33.4625 247.787 31.232 243.779 30.3412L243.779 30.3412L132.476 5.60716L131.5 5.39023L130.524 5.60716L19.2207 30.3412Z" stroke="#EB3745" stroke-width="9"/>
<path d="M183.863 127.046C181.123 116.413 175.453 106.762 167.502 99.1894C159.551 91.6171 149.634 86.4272 138.88 84.2095C128.125 81.9919 116.964 82.8354 106.666 86.6442C96.3674 90.4529 87.3427 97.0743 80.6183 105.756C73.8961 114.437 69.7427 124.83 68.6308 135.755C67.519 146.679 69.4935 157.696 74.3328 167.553C79.1699 177.411 86.6738 185.714 95.9946 191.519C105.315 197.324 116.078 200.398 127.058 200.392H173.492C182.506 200.393 191.217 197.139 198.023 191.229C204.828 185.319 209.271 177.151 210.534 168.226C211.797 159.302 209.795 150.221 204.896 142.655C199.997 135.089 192.532 129.546 183.871 127.046H183.863ZM173.483 189.81H127.05C117.765 189.813 108.677 187.13 100.883 182.085C93.0872 177.039 86.9188 169.846 83.1189 161.374C79.3212 152.901 78.0538 143.51 79.4724 134.334C80.891 125.157 84.9337 116.587 91.1127 109.657C97.2939 102.727 105.345 97.732 114.3 95.2753C123.254 92.8187 132.728 93.005 141.58 95.8117C150.43 98.6184 158.282 103.926 164.184 111.094C170.086 118.262 173.788 126.984 174.844 136.209H174.81C181.803 136.551 188.385 139.613 193.149 144.743C197.914 149.872 200.485 156.661 200.31 163.66C200.136 170.659 197.232 177.312 192.218 182.199C187.205 187.085 180.478 189.816 173.477 189.81H173.483Z" fill="white"/>
<path d="M173.483 147.199H164.166V141.686C164.168 134.345 161.994 127.167 157.917 121.061C153.84 114.956 148.044 110.196 141.26 107.385C134.479 104.574 127.015 103.838 119.814 105.269C112.614 106.7 105.999 110.234 100.806 115.425C95.615 120.616 92.0793 127.23 90.6458 134.43C89.2123 141.631 89.9472 149.095 92.7566 155.878C95.5682 162.661 100.324 168.458 106.429 172.536C112.536 176.615 119.711 178.791 127.054 178.791H173.487C177.677 178.791 181.694 177.126 184.657 174.164C187.619 171.202 189.283 167.184 189.283 162.995C189.283 158.805 187.619 154.788 184.657 151.825C181.694 148.863 177.677 147.199 173.487 147.199" fill="white"/>
</svg>
